<svg xlink="http://www.w3.org/1999/xlink" viewBox="0 0 5000 5000" xmlns="http://www.w3.org/2000/svg" style="transform: scale(1);"><defs><filter id="goo"><feGaussianBlur in="SourceGraphic" stdDeviation="0" result="blur"></feGaussianBlur><feColorMatrix in="blur" type="matrix" values="1 0 0 0 0 0 1 0 0 0 0 0 1 0 0 0 0 0 19 -9" result="good"></feColorMatrix><feComposite in="SourceGraphic" in2="goo" operator="atop"></feComposite></filter><path d="M252,226Q265,217 267,234C262,246 263,252 269,264C254,263 246,263 231,264C237,248 241,240 252,226z" id="P0"></path><path d="M242,265L238,262L255,234L267,252L242,265z" id="P1"></path><path d="M218,263Q220,209 272,224C265,240 267,246 284,252L256,283Q228,296 218,263z" id="P2"></path><path d="M254,260L242,258L251,239L261,249L254,260z" id="P3"></path><path d="M244,269L230,247C231,240 236,234 244,231L265,264L244,269z" id="P4"></path><path d="M253,268L232,251L263,238L258,266L253,268z" id="P5"></path><path d="M277,239C279,243 279,246 279,252L232,272C226,268 222,261 221,254C239,238 253,234 277,239z" id="P6"></path><path d="M259,256L239,251L242,242L255,240L259,256z" id="P7"></path><path d="M271,279C242,290 216,272 215,243Q221,204 261,216Q279,204 276,225C289,243 286,264 271,279z" id="P8"></path><path d="M264,249L256,263L239,259L240,240L264,249z" id="P9"></path><path d="M278,252L246,278C237,277 230,271 226,265C235,246 242,236 259,223L278,252z" id="P10"></path><path d="M232,257L252,231L269,248L252,269L232,257z" id="P11"></path><path d="M284,264L226,279L232,218C251,230 262,234 283,234Q305,247 284,264z" id="P12"></path><path d="M236,243L252,234L264,258L238,261L236,243z" id="P13"></path></defs><rect id="RECT" width="5000" height="5000" fill="#FFFFFF"></rect><g id="group" fill="#000000" filter="" opacity="0.17"><use x="-132" y="-115" href="#P3"></use><use x="-214" y="92" href="#P0"></use><use x="-161" y="159" href="#P0"></use><use x="-240" y="317" href="#P4"></use><use x="-153" y="501" href="#P5"></use><use x="-147" y="686" href="#P7"></use><use x="-226" y="931" href="#P11"></use><use x="-195" y="1044" href="#P10"></use><use x="-128" y="1173" href="#P8"></use><use x="-163" y="1470" href="#P13"></use><use x="-202" y="1621" href="#P12"></use><use x="-110" y="1778" href="#P8"></use><use x="-219" y="1872" href="#P6"></use><use x="-72" y="2030" href="#P4"></use><use x="-151" y="2286" href="#P13"></use><use x="-206" y="2488" href="#P9"></use><use x="-244" y="2703" href="#P7"></use><use x="-143" y="2719" href="#P2"></use><use x="-148" y="2933" href="#P0"></use><use x="-236" y="3147" href="#P9"></use><use x="-73" y="3342" href="#P4"></use><use x="-177" y="3489" href="#P7"></use><use x="-156" y="3716" href="#P11"></use><use x="-154" y="3800" href="#P7"></use><use x="-211" y="3941" href="#P1"></use><use x="-100" y="4251" href="#P12"></use><use x="-204" y="4464" href="#P1"></use><use x="-235" y="4510" href="#P9"></use><use x="-108" y="4667" href="#P5"></use><use x="-73" y="4911" href="#P8"></use><use x="-227" y="5160" href="#P3"></use><use x="-95" y="5269" href="#P4"></use><use x="4" y="-235" href="#P9"></use><use x="-45" y="91" href="#P5"></use><use x="32" y="112" href="#P10"></use><use x="25" y="345" href="#P10"></use><use x="2" y="556" href="#P7"></use><use x="79" y="720" href="#P4"></use><use x="56" y="835" href="#P7"></use><use x="38" y="1021" href="#P2"></use><use x="99" y="1191" href="#P12"></use><use x="5" y="1407" href="#P1"></use><use x="-21" y="1510" href="#P1"></use><use x="48" y="1704" href="#P2"></use><use x="2" y="1884" href="#P5"></use><use x="12" y="2107" href="#P11"></use><use x="90" y="2295" href="#P5"></use><use x="-16" y="2370" href="#P6"></use><use x="-32" y="2601" href="#P9"></use><use x="-25" y="2881" href="#P7"></use><use x="-62" y="2898" href="#P1"></use><use x="87" y="3093" href="#P9"></use><use x="-7" y="3323" href="#P5"></use><use x="46" y="3536" href="#P7"></use><use x="103" y="3724" href="#P1"></use><use x="65" y="3780" href="#P9"></use><use x="37" y="4063" href="#P2"></use><use x="-17" y="4230" href="#P1"></use><use x="92" y="4355" href="#P0"></use><use x="53" y="4481" href="#P2"></use><use x="-43" y="4643" href="#P10"></use><use x="-49" y="4818" href="#P3"></use><use x="22" y="5139" href="#P6"></use><use x="85" y="5201" href="#P13"></use><use x="133" y="-248" href="#P11"></use><use x="174" y="-9" href="#P4"></use><use x="156" y="125" href="#P8"></use><use x="240" y="415" href="#P11"></use><use x="268" y="612" href="#P7"></use><use x="214" y="660" href="#P4"></use><use x="192" y="839" href="#P8"></use><use x="232" y="1132" href="#P3"></use><use x="138" y="1218" href="#P12"></use><use x="162" y="1324" href="#P13"></use><use x="184" y="1541" href="#P11"></use><use x="115" y="1797" href="#P5"></use><use x="231" y="2012" href="#P11"></use><use x="228" y="2176" href="#P12"></use><use x="110" y="2358" href="#P3"></use><use x="123" y="2508" href="#P0"></use><use x="182" y="2649" href="#P12"></use><use x="140" y="2853" href="#P8"></use><use x="258" y="3006" href="#P2"></use><use x="159" y="3207" href="#P11"></use><use x="252" y="3284" href="#P6"></use><use x="133" y="3569" href="#P11"></use><use x="111" y="3641" href="#P9"></use><use x="129" y="3935" href="#P12"></use><use x="225" y="3981" href="#P2"></use><use x="213" y="4204" href="#P2"></use><use x="112" y="4295" href="#P3"></use><use x="129" y="4577" href="#P2"></use><use x="140" y="4775" href="#P11"></use><use x="172" y="4877" href="#P4"></use><use x="159" y="5110" href="#P2"></use><use x="221" y="5308" href="#P11"></use><use x="429" y="-185" href="#P12"></use><use x="423" y="58" href="#P3"></use><use x="430" y="198" href="#P0"></use><use x="357" y="416" href="#P10"></use><use x="370" y="529" href="#P5"></use><use x="337" y="749" href="#P8"></use><use x="401" y="903" href="#P7"></use><use x="423" y="1133" href="#P7"></use><use x="348" y="1320" href="#P10"></use><use x="377" y="1362" href="#P3"></use><use x="333" y="1598" href="#P12"></use><use x="412" y="1683" href="#P0"></use><use x="328" y="1859" href="#P11"></use><use x="349" y="2112" href="#P1"></use><use x="378" y="2212" href="#P8"></use><use x="441" y="2431" href="#P11"></use><use x="385" y="2640" href="#P12"></use><use x="443" y="2799" href="#P11"></use><use x="441" y="3009" href="#P9"></use><use x="443" y="3184" href="#P6"></use><use x="366" y="3372" href="#P9"></use><use x="365" y="3502" href="#P3"></use><use x="403" y="3600" href="#P9"></use><use x="413" y="3853" href="#P10"></use><use x="457" y="4096" href="#P13"></use><use x="375" y="4194" href="#P9"></use><use x="381" y="4438" href="#P6"></use><use x="307" y="4633" href="#P0"></use><use x="305" y="4751" href="#P13"></use><use x="301" y="4934" href="#P1"></use><use x="391" y="5051" href="#P2"></use><use x="448" y="5331" href="#P8"></use><use x="582" y="-182" href="#P10"></use><use x="486" y="55" href="#P1"></use><use x="502" y="254" href="#P10"></use><use x="481" y="340" href="#P4"></use><use x="466" y="555" href="#P0"></use><use x="464" y="788" href="#P0"></use><use x="472" y="939" href="#P7"></use><use x="557" y="1024" href="#P4"></use><use x="577" y="1291" href="#P8"></use><use x="501" y="1452" href="#P4"></use><use x="474" y="1620" href="#P8"></use><use x="613" y="1715" href="#P3"></use><use x="588" y="1965" href="#P1"></use><use x="574" y="2038" href="#P9"></use><use x="604" y="2195" href="#P2"></use><use x="491" y="2459" href="#P11"></use><use x="583" y="2587" href="#P4"></use><use x="529" y="2732" href="#P4"></use><use x="549" y="2946" href="#P5"></use><use x="611" y="3177" href="#P12"></use><use x="560" y="3393" href="#P0"></use><use x="596" y="3524" href="#P7"></use><use x="602" y="3756" href="#P4"></use><use x="597" y="3824" href="#P1"></use><use x="636" y="4057" href="#P1"></use><use x="611" y="4278" href="#P11"></use><use x="596" y="4330" href="#P6"></use><use x="608" y="4537" href="#P0"></use><use x="553" y="4779" href="#P1"></use><use x="463" y="4901" href="#P12"></use><use x="580" y="5050" href="#P13"></use><use x="576" y="5203" href="#P1"></use><use x="814" y="-221" href="#P9"></use><use x="708" y="7" href="#P12"></use><use x="666" y="258" href="#P11"></use><use x="805" y="338" href="#P9"></use><use x="777" y="568" href="#P1"></use><use x="761" y="733" href="#P9"></use><use x="670" y="801" href="#P10"></use><use x="654" y="1119" href="#P10"></use><use x="811" y="1292" href="#P7"></use><use x="668" y="1366" href="#P5"></use><use x="658" y="1531" href="#P0"></use><use x="657" y="1755" href="#P8"></use><use x="643" y="1868" href="#P9"></use><use x="672" y="2121" href="#P8"></use><use x="710" y="2258" href="#P8"></use><use x="760" y="2524" href="#P2"></use><use x="767" y="2576" href="#P5"></use><use x="641" y="2825" href="#P4"></use><use x="780" y="2981" href="#P3"></use><use x="765" y="3195" href="#P1"></use><use x="654" y="3368" href="#P0"></use><use x="700" y="3462" href="#P13"></use><use x="646" y="3662" href="#P9"></use><use x="807" y="3841" href="#P2"></use><use x="740" y="3963" href="#P4"></use><use x="695" y="4281" href="#P9"></use><use x="675" y="4377" href="#P6"></use><use x="752" y="4624" href="#P7"></use><use x="646" y="4777" href="#P2"></use><use x="801" y="4841" href="#P1"></use><use x="787" y="5023" href="#P5"></use><use x="744" y="5309" href="#P8"></use><use x="931" y="-161" href="#P13"></use><use x="958" y="-67" href="#P12"></use><use x="877" y="110" href="#P2"></use><use x="873" y="432" href="#P10"></use><use x="852" y="476" href="#P1"></use><use x="894" y="719" href="#P13"></use><use x="944" y="807" href="#P10"></use><use x="892" y="1060" href="#P0"></use><use x="837" y="1203" href="#P1"></use><use x="820" y="1440" href="#P0"></use><use x="892" y="1634" href="#P7"></use><use x="859" y="1757" href="#P0"></use><use x="850" y="1852" href="#P4"></use><use x="816" y="2165" href="#P5"></use><use x="985" y="2312" href="#P6"></use><use x="972" y="2377" href="#P7"></use><use x="937" y="2548" href="#P11"></use><use x="822" y="2779" href="#P0"></use><use x="973" y="2977" href="#P2"></use><use x="951" y="3223" href="#P4"></use><use x="941" y="3395" href="#P5"></use><use x="819" y="3554" href="#P12"></use><use x="980" y="3691" href="#P0"></use><use x="943" y="3819" href="#P10"></use><use x="822" y="4077" href="#P5"></use><use x="978" y="4261" href="#P4"></use><use x="958" y="4417" href="#P6"></use><use x="941" y="4465" href="#P7"></use><use x="933" y="4733" href="#P9"></use><use x="963" y="4874" href="#P1"></use><use x="893" y="5059" href="#P12"></use><use x="819" y="5208" href="#P12"></use><use x="1013" y="-237" href="#P2"></use><use x="1039" y="-12" href="#P1"></use><use x="1113" y="195" href="#P6"></use><use x="1042" y="424" href="#P4"></use><use x="1089" y="548" href="#P8"></use><use x="1102" y="793" href="#P13"></use><use x="1029" y="846" href="#P7"></use><use x="1083" y="974" href="#P7"></use><use x="1037" y="1272" href="#P7"></use><use x="1062" y="1406" href="#P1"></use><use x="1016" y="1524" href="#P10"></use><use x="1117" y="1687" href="#P4"></use><use x="1146" y="1976" href="#P8"></use><use x="1128" y="2022" href="#P12"></use><use x="1064" y="2318" href="#P10"></use><use x="1032" y="2390" href="#P9"></use><use x="1003" y="2563" href="#P9"></use><use x="1072" y="2748" href="#P11"></use><use x="1039" y="2908" href="#P9"></use><use x="1070" y="3223" href="#P1"></use><use x="1130" y="3302" href="#P4"></use><use x="1073" y="3431" href="#P3"></use><use x="1073" y="3611" href="#P13"></use><use x="1059" y="3821" href="#P11"></use><use x="1069" y="4003" href="#P13"></use><use x="1157" y="4232" href="#P6"></use><use x="1012" y="4440" href="#P1"></use><use x="1127" y="4563" href="#P1"></use><use x="1128" y="4705" href="#P7"></use><use x="1161" y="4964" href="#P0"></use><use x="1103" y="5110" href="#P8"></use><use x="1113" y="5297" href="#P8"></use><use x="1282" y="-201" href="#P6"></use><use x="1312" y="15" href="#P2"></use><use x="1195" y="187" href="#P2"></use><use x="1324" y="382" href="#P4"></use><use x="1310" y="593" href="#P5"></use><use x="1213" y="709" href="#P8"></use><use x="1223" y="840" href="#P7"></use><use x="1340" y="1106" href="#P3"></use><use x="1285" y="1240" href="#P1"></use><use x="1230" y="1357" href="#P3"></use><use x="1248" y="1518" href="#P2"></use><use x="1203" y="1720" href="#P2"></use><use x="1176" y="1956" href="#P8"></use><use x="1202" y="2100" href="#P5"></use><use x="1215" y="2342" href="#P0"></use><use x="1241" y="2400" href="#P13"></use><use x="1242" y="2672" href="#P6"></use><use x="1334" y="2875" href="#P11"></use><use x="1244" y="3028" href="#P2"></use><use x="1174" y="3084" href="#P1"></use><use x="1195" y="3367" href="#P9"></use><use x="1230" y="3426" href="#P1"></use><use x="1282" y="3634" href="#P4"></use><use x="1172" y="3790" href="#P1"></use><use x="1290" y="3990" href="#P5"></use><use x="1173" y="4223" href="#P11"></use><use x="1228" y="4385" href="#P2"></use><use x="1203" y="4552" href="#P11"></use><use x="1208" y="4688" href="#P8"></use><use x="1219" y="4856" href="#P13"></use><use x="1280" y="5099" href="#P12"></use><use x="1203" y="5292" href="#P4"></use><use x="1362" y="-181" href="#P4"></use><use x="1364" y="40" href="#P6"></use><use x="1520" y="105" href="#P9"></use><use x="1421" y="379" href="#P1"></use><use x="1426" y="477" href="#P4"></use><use x="1388" y="691" href="#P6"></use><use x="1373" y="963" href="#P7"></use><use x="1500" y="1016" href="#P11"></use><use x="1523" y="1274" href="#P13"></use><use x="1367" y="1341" href="#P6"></use><use x="1409" y="1525" href="#P10"></use><use x="1495" y="1782" href="#P13"></use><use x="1354" y="1981" href="#P1"></use><use x="1506" y="2132" href="#P12"></use><use x="1435" y="2279" href="#P13"></use><use x="1497" y="2538" href="#P3"></use><use x="1365" y="2570" href="#P5"></use><use x="1348" y="2730" href="#P11"></use><use x="1522" y="2937" href="#P1"></use><use x="1407" y="3164" href="#P10"></use><use x="1379" y="3411" href="#P9"></use><use x="1523" y="3466" href="#P9"></use><use x="1392" y="3623" href="#P1"></use><use x="1422" y="3870" href="#P5"></use><use x="1374" y="4045" href="#P3"></use><use x="1383" y="4273" href="#P0"></use><use x="1497" y="4353" href="#P9"></use><use x="1388" y="4583" href="#P6"></use><use x="1502" y="4783" href="#P12"></use><use x="1517" y="4836" href="#P0"></use><use x="1384" y="5094" href="#P8"></use><use x="1408" y="5252" href="#P10"></use><use x="1636" y="-162" href="#P1"></use><use x="1665" y="-31" href="#P0"></use><use x="1537" y="158" href="#P13"></use><use x="1563" y="322" href="#P0"></use><use x="1567" y="476" href="#P2"></use><use x="1540" y="642" href="#P10"></use><use x="1566" y="871" href="#P8"></use><use x="1682" y="1008" href="#P3"></use><use x="1693" y="1154" href="#P1"></use><use x="1603" y="1420" href="#P0"></use><use x="1529" y="1588" href="#P0"></use><use x="1670" y="1685" href="#P4"></use><use x="1543" y="1856" href="#P4"></use><use x="1576" y="2024" href="#P7"></use><use x="1691" y="2296" href="#P11"></use><use x="1567" y="2475" href="#P8"></use><use x="1666" y="2575" href="#P3"></use><use x="1696" y="2761" href="#P9"></use><use x="1658" y="2932" href="#P3"></use><use x="1685" y="3118" href="#P8"></use><use x="1541" y="3336" href="#P9"></use><use x="1667" y="3573" href="#P2"></use><use x="1602" y="3659" href="#P6"></use><use x="1529" y="3829" href="#P3"></use><use x="1561" y="4026" href="#P10"></use><use x="1648" y="4140" href="#P10"></use><use x="1634" y="4441" href="#P0"></use><use x="1684" y="4618" href="#P0"></use><use x="1631" y="4673" href="#P12"></use><use x="1582" y="4875" href="#P4"></use><use x="1674" y="5089" href="#P2"></use><use x="1686" y="5207" href="#P9"></use><use x="1850" y="-197" href="#P0"></use><use x="1833" y="31" href="#P3"></use><use x="1788" y="218" href="#P12"></use><use x="1720" y="415" href="#P7"></use><use x="1772" y="576" href="#P13"></use><use x="1707" y="690" href="#P3"></use><use x="1711" y="865" href="#P6"></use><use x="1775" y="1007" href="#P12"></use><use x="1767" y="1315" href="#P7"></use><use x="1844" y="1496" href="#P1"></use><use x="1735" y="1638" href="#P9"></use><use x="1795" y="1707" href="#P6"></use><use x="1788" y="2015" href="#P6"></use><use x="1813" y="2041" href="#P9"></use><use x="1713" y="2290" href="#P6"></use><use x="1796" y="2507" href="#P10"></use><use x="1741" y="2706" href="#P4"></use><use x="1773" y="2877" href="#P12"></use><use x="1840" y="3067" href="#P4"></use><use x="1775" y="3168" href="#P4"></use><use x="1845" y="3380" href="#P1"></use><use x="1818" y="3532" href="#P5"></use><use x="1758" y="3697" href="#P2"></use><use x="1814" y="3922" href="#P9"></use><use x="1841" y="4078" href="#P6"></use><use x="1870" y="4156" href="#P1"></use><use x="1774" y="4394" href="#P8"></use><use x="1757" y="4631" href="#P7"></use><use x="1787" y="4666" href="#P12"></use><use x="1771" y="4932" href="#P7"></use><use x="1769" y="5072" href="#P3"></use><use x="1830" y="5305" href="#P5"></use><use x="2006" y="-159" href="#P0"></use><use x="2041" y="66" href="#P7"></use><use x="2045" y="209" href="#P3"></use><use x="1911" y="445" href="#P1"></use><use x="2042" y="593" href="#P5"></use><use x="1997" y="666" href="#P8"></use><use x="2015" y="887" href="#P12"></use><use x="2001" y="991" href="#P6"></use><use x="1906" y="1200" href="#P0"></use><use x="1964" y="1388" href="#P6"></use><use x="1980" y="1523" href="#P8"></use><use x="1899" y="1720" href="#P12"></use><use x="1905" y="2013" href="#P13"></use><use x="1936" y="2043" href="#P3"></use><use x="1891" y="2314" href="#P7"></use><use x="2027" y="2444" href="#P2"></use><use x="1924" y="2706" href="#P11"></use><use x="2054" y="2751" href="#P5"></use><use x="1897" y="2920" href="#P9"></use><use x="1978" y="3231" href="#P1"></use><use x="1899" y="3300" href="#P6"></use><use x="1888" y="3562" href="#P0"></use><use x="1952" y="3741" href="#P12"></use><use x="2053" y="3878" href="#P6"></use><use x="1940" y="4093" href="#P5"></use><use x="1946" y="4147" href="#P11"></use><use x="1890" y="4413" href="#P8"></use><use x="2018" y="4596" href="#P4"></use><use x="1964" y="4734" href="#P9"></use><use x="1963" y="4827" href="#P12"></use><use x="2047" y="5083" href="#P2"></use><use x="1911" y="5282" href="#P12"></use><use x="2172" y="-123" href="#P9"></use><use x="2185" y="81" href="#P2"></use><use x="2116" y="113" href="#P2"></use><use x="2058" y="282" href="#P1"></use><use x="2073" y="577" href="#P12"></use><use x="2064" y="795" href="#P1"></use><use x="2114" y="934" href="#P7"></use><use x="2229" y="1083" href="#P8"></use><use x="2098" y="1235" href="#P3"></use><use x="2219" y="1384" href="#P13"></use><use x="2188" y="1622" href="#P9"></use><use x="2059" y="1739" href="#P10"></use><use x="2117" y="1969" href="#P11"></use><use x="2228" y="2031" href="#P10"></use><use x="2209" y="2315" href="#P10"></use><use x="2161" y="2377" href="#P5"></use><use x="2209" y="2549" href="#P13"></use><use x="2139" y="2840" href="#P12"></use><use x="2092" y="2961" href="#P8"></use><use x="2082" y="3071" href="#P12"></use><use x="2093" y="3396" href="#P7"></use><use x="2222" y="3441" href="#P0"></use><use x="2144" y="3645" href="#P13"></use><use x="2110" y="3888" href="#P8"></use><use x="2183" y="4100" href="#P13"></use><use x="2088" y="4170" href="#P0"></use><use x="2123" y="4450" href="#P7"></use><use x="2234" y="4517" href="#P7"></use><use x="2228" y="4746" href="#P2"></use><use x="2196" y="4881" href="#P8"></use><use x="2146" y="5004" href="#P2"></use><use x="2202" y="5264" href="#P0"></use><use x="2268" y="-97" href="#P11"></use><use x="2311" y="-9" href="#P6"></use><use x="2245" y="166" href="#P4"></use><use x="2258" y="316" href="#P4"></use><use x="2235" y="542" href="#P13"></use><use x="2304" y="739" href="#P7"></use><use x="2410" y="802" href="#P13"></use><use x="2238" y="1138" href="#P1"></use><use x="2368" y="1184" href="#P12"></use><use x="2272" y="1420" href="#P10"></use><use x="2299" y="1613" href="#P8"></use><use x="2274" y="1787" href="#P3"></use><use x="2341" y="1874" href="#P6"></use><use x="2264" y="2032" href="#P5"></use><use x="2376" y="2293" href="#P4"></use><use x="2374" y="2371" href="#P9"></use><use x="2325" y="2632" href="#P4"></use><use x="2264" y="2805" href="#P7"></use><use x="2364" y="2984" href="#P2"></use><use x="2386" y="3087" href="#P8"></use><use x="2329" y="3272" href="#P0"></use><use x="2375" y="3539" href="#P5"></use><use x="2300" y="3755" href="#P6"></use><use x="2234" y="3843" href="#P5"></use><use x="2239" y="3945" href="#P3"></use><use x="2356" y="4244" href="#P8"></use><use x="2359" y="4352" href="#P5"></use><use x="2325" y="4506" href="#P10"></use><use x="2349" y="4716" href="#P4"></use><use x="2388" y="4839" href="#P10"></use><use x="2406" y="4990" href="#P11"></use><use x="2338" y="5294" href="#P1"></use><use x="2428" y="-210" href="#P6"></use><use x="2538" y="13" href="#P8"></use><use x="2558" y="201" href="#P9"></use><use x="2512" y="389" href="#P3"></use><use x="2446" y="621" href="#P11"></use><use x="2573" y="754" href="#P13"></use><use x="2550" y="930" href="#P5"></use><use x="2569" y="972" href="#P1"></use><use x="2527" y="1147" href="#P2"></use><use x="2564" y="1374" href="#P5"></use><use x="2526" y="1627" href="#P7"></use><use x="2481" y="1749" href="#P0"></use><use x="2436" y="1862" href="#P2"></use><use x="2495" y="2184" href="#P5"></use><use x="2581" y="2273" href="#P4"></use><use x="2550" y="2371" href="#P3"></use><use x="2505" y="2662" href="#P3"></use><use x="2520" y="2851" href="#P0"></use><use x="2413" y="2934" href="#P10"></use><use x="2541" y="3098" href="#P13"></use><use x="2585" y="3402" href="#P1"></use><use x="2486" y="3580" href="#P1"></use><use x="2478" y="3678" href="#P4"></use><use x="2546" y="3932" href="#P13"></use><use x="2476" y="4068" href="#P6"></use><use x="2533" y="4222" href="#P2"></use><use x="2561" y="4313" href="#P2"></use><use x="2532" y="4479" href="#P5"></use><use x="2521" y="4682" href="#P1"></use><use x="2424" y="4874" href="#P4"></use><use x="2555" y="5103" href="#P8"></use><use x="2553" y="5316" href="#P11"></use><use x="2651" y="-161" href="#P8"></use><use x="2595" y="-31" href="#P4"></use><use x="2694" y="220" href="#P13"></use><use x="2752" y="311" href="#P10"></use><use x="2730" y="483" href="#P0"></use><use x="2589" y="741" href="#P5"></use><use x="2630" y="853" href="#P0"></use><use x="2631" y="1123" href="#P4"></use><use x="2741" y="1186" href="#P6"></use><use x="2693" y="1473" href="#P11"></use><use x="2763" y="1581" href="#P4"></use><use x="2761" y="1715" href="#P9"></use><use x="2696" y="1868" href="#P6"></use><use x="2688" y="2164" href="#P10"></use><use x="2671" y="2259" href="#P1"></use><use x="2758" y="2525" href="#P0"></use><use x="2722" y="2718" href="#P0"></use><use x="2718" y="2849" href="#P3"></use><use x="2712" y="2914" href="#P5"></use><use x="2755" y="3141" href="#P4"></use><use x="2720" y="3352" href="#P1"></use><use x="2656" y="3527" href="#P3"></use><use x="2686" y="3677" href="#P1"></use><use x="2759" y="3778" href="#P6"></use><use x="2616" y="3994" href="#P4"></use><use x="2734" y="4220" href="#P0"></use><use x="2685" y="4444" href="#P11"></use><use x="2660" y="4526" href="#P0"></use><use x="2733" y="4802" href="#P2"></use><use x="2749" y="4920" href="#P4"></use><use x="2596" y="5112" href="#P12"></use><use x="2752" y="5224" href="#P1"></use><use x="2933" y="-127" href="#P10"></use><use x="2867" y="-58" href="#P13"></use><use x="2869" y="154" href="#P12"></use><use x="2830" y="286" href="#P0"></use><use x="2790" y="552" href="#P12"></use><use x="2897" y="679" href="#P9"></use><use x="2840" y="825" href="#P5"></use><use x="2895" y="1125" href="#P13"></use><use x="2878" y="1174" href="#P3"></use><use x="2810" y="1469" href="#P2"></use><use x="2888" y="1606" href="#P9"></use><use x="2872" y="1844" href="#P1"></use><use x="2790" y="2010" href="#P0"></use><use x="2795" y="2075" href="#P5"></use><use x="2875" y="2321" href="#P7"></use><use x="2833" y="2426" href="#P4"></use><use x="2826" y="2687" href="#P10"></use><use x="2829" y="2893" href="#P7"></use><use x="2907" y="2969" href="#P4"></use><use x="2913" y="3218" href="#P11"></use><use x="2797" y="3336" href="#P13"></use><use x="2877" y="3560" href="#P7"></use><use x="2831" y="3612" href="#P5"></use><use x="2904" y="3826" href="#P12"></use><use x="2859" y="4104" href="#P8"></use><use x="2925" y="4288" href="#P7"></use><use x="2825" y="4462" href="#P2"></use><use x="2799" y="4608" href="#P7"></use><use x="2851" y="4813" href="#P13"></use><use x="2866" y="4823" href="#P5"></use><use x="2872" y="5046" href="#P10"></use><use x="2863" y="5278" href="#P5"></use><use x="3093" y="-166" href="#P10"></use><use x="2979" y="48" href="#P1"></use><use x="2980" y="164" href="#P4"></use><use x="3102" y="329" href="#P7"></use><use x="2954" y="508" href="#P2"></use><use x="2976" y="765" href="#P9"></use><use x="3048" y="909" href="#P6"></use><use x="3116" y="1122" href="#P9"></use><use x="3020" y="1175" href="#P13"></use><use x="3064" y="1323" href="#P10"></use><use x="2955" y="1614" href="#P7"></use><use x="3026" y="1843" href="#P12"></use><use x="2954" y="1936" href="#P1"></use><use x="3050" y="2029" href="#P6"></use><use x="3048" y="2355" href="#P5"></use><use x="2984" y="2444" href="#P6"></use><use x="2991" y="2672" href="#P12"></use><use x="3031" y="2874" href="#P0"></use><use x="2997" y="2984" href="#P6"></use><use x="3041" y="3125" href="#P10"></use><use x="2994" y="3359" href="#P2"></use><use x="3084" y="3472" href="#P4"></use><use x="3081" y="3709" href="#P9"></use><use x="3098" y="3897" href="#P6"></use><use x="3018" y="4083" href="#P11"></use><use x="3001" y="4237" href="#P6"></use><use x="3042" y="4436" href="#P0"></use><use x="2950" y="4478" href="#P11"></use><use x="2985" y="4670" href="#P8"></use><use x="2959" y="4819" href="#P12"></use><use x="3036" y="5048" href="#P10"></use><use x="3006" y="5164" href="#P11"></use><use x="3255" y="-129" href="#P2"></use><use x="3278" y="30" href="#P6"></use><use x="3187" y="150" href="#P1"></use><use x="3256" y="368" href="#P7"></use><use x="3124" y="498" href="#P5"></use><use x="3141" y="627" href="#P8"></use><use x="3181" y="908" href="#P8"></use><use x="3211" y="1108" href="#P8"></use><use x="3193" y="1283" href="#P4"></use><use x="3287" y="1451" href="#P7"></use><use x="3261" y="1514" href="#P5"></use><use x="3259" y="1722" href="#P13"></use><use x="3186" y="1985" href="#P10"></use><use x="3124" y="2040" href="#P2"></use><use x="3191" y="2334" href="#P13"></use><use x="3157" y="2537" href="#P7"></use><use x="3217" y="2645" href="#P2"></use><use x="3245" y="2819" href="#P12"></use><use x="3200" y="2918" href="#P5"></use><use x="3194" y="3068" href="#P4"></use><use x="3231" y="3392" href="#P9"></use><use x="3294" y="3527" href="#P6"></use><use x="3252" y="3753" href="#P1"></use><use x="3192" y="3820" href="#P10"></use><use x="3277" y="3971" href="#P0"></use><use x="3186" y="4248" href="#P11"></use><use x="3229" y="4328" href="#P11"></use><use x="3283" y="4625" href="#P5"></use><use x="3286" y="4763" href="#P9"></use><use x="3171" y="4847" href="#P4"></use><use x="3125" y="5161" href="#P9"></use><use x="3282" y="5295" href="#P5"></use><use x="3455" y="-247" href="#P11"></use><use x="3386" y="89" href="#P0"></use><use x="3474" y="217" href="#P5"></use><use x="3319" y="351" href="#P6"></use><use x="3406" y="470" href="#P13"></use><use x="3446" y="624" href="#P2"></use><use x="3307" y="926" href="#P5"></use><use x="3352" y="1072" href="#P12"></use><use x="3406" y="1214" href="#P10"></use><use x="3425" y="1493" href="#P8"></use><use x="3400" y="1633" href="#P12"></use><use x="3359" y="1675" href="#P9"></use><use x="3342" y="1988" href="#P13"></use><use x="3412" y="2157" href="#P7"></use><use x="3443" y="2337" href="#P1"></use><use x="3413" y="2406" href="#P11"></use><use x="3438" y="2633" href="#P9"></use><use x="3348" y="2817" href="#P1"></use><use x="3422" y="2906" href="#P6"></use><use x="3366" y="3211" href="#P2"></use><use x="3390" y="3386" href="#P12"></use><use x="3444" y="3522" href="#P6"></use><use x="3310" y="3647" href="#P1"></use><use x="3420" y="3841" href="#P6"></use><use x="3466" y="4015" href="#P9"></use><use x="3380" y="4283" href="#P10"></use><use x="3362" y="4362" href="#P8"></use><use x="3419" y="4577" href="#P5"></use><use x="3381" y="4763" href="#P6"></use><use x="3336" y="4844" href="#P1"></use><use x="3394" y="5131" href="#P13"></use><use x="3470" y="5309" href="#P0"></use><use x="3640" y="-94" href="#P13"></use><use x="3538" y="71" href="#P13"></use><use x="3586" y="103" href="#P3"></use><use x="3493" y="428" href="#P7"></use><use x="3599" y="610" href="#P10"></use><use x="3599" y="647" href="#P9"></use><use x="3494" y="829" href="#P5"></use><use x="3525" y="1135" href="#P5"></use><use x="3621" y="1229" href="#P4"></use><use x="3554" y="1486" href="#P5"></use><use x="3517" y="1660" href="#P7"></use><use x="3537" y="1741" href="#P6"></use><use x="3518" y="1990" href="#P3"></use><use x="3595" y="2126" href="#P9"></use><use x="3643" y="2269" href="#P5"></use><use x="3652" y="2490" href="#P6"></use><use x="3641" y="2689" href="#P2"></use><use x="3604" y="2832" href="#P2"></use><use x="3520" y="2981" href="#P5"></use><use x="3499" y="3197" href="#P6"></use><use x="3555" y="3376" href="#P1"></use><use x="3485" y="3522" href="#P7"></use><use x="3603" y="3636" href="#P11"></use><use x="3524" y="3839" href="#P2"></use><use x="3621" y="4002" href="#P5"></use><use x="3574" y="4251" href="#P5"></use><use x="3613" y="4293" href="#P0"></use><use x="3651" y="4583" href="#P8"></use><use x="3627" y="4784" href="#P4"></use><use x="3615" y="4857" href="#P8"></use><use x="3587" y="5089" href="#P0"></use><use x="3538" y="5218" href="#P10"></use><use x="3671" y="-108" href="#P5"></use><use x="3676" y="75" href="#P13"></use><use x="3726" y="208" href="#P3"></use><use x="3759" y="401" href="#P4"></use><use x="3742" y="460" href="#P7"></use><use x="3677" y="648" href="#P2"></use><use x="3664" y="837" href="#P12"></use><use x="3706" y="1014" href="#P5"></use><use x="3715" y="1271" href="#P3"></use><use x="3728" y="1404" href="#P8"></use><use x="3784" y="1521" href="#P3"></use><use x="3786" y="1836" href="#P3"></use><use x="3710" y="1885" href="#P10"></use><use x="3823" y="2184" href="#P13"></use><use x="3682" y="2332" href="#P7"></use><use x="3810" y="2483" href="#P12"></use><use x="3741" y="2564" href="#P9"></use><use x="3782" y="2758" href="#P6"></use><use x="3813" y="3067" href="#P13"></use><use x="3757" y="3154" href="#P5"></use><use x="3740" y="3267" href="#P1"></use><use x="3817" y="3442" href="#P0"></use><use x="3685" y="3681" href="#P0"></use><use x="3717" y="3929" href="#P9"></use><use x="3697" y="3948" href="#P12"></use><use x="3667" y="4230" href="#P1"></use><use x="3671" y="4465" href="#P2"></use><use x="3819" y="4547" href="#P10"></use><use x="3660" y="4769" href="#P3"></use><use x="3657" y="4857" href="#P12"></use><use x="3656" y="5092" href="#P4"></use><use x="3701" y="5281" href="#P9"></use><use x="3988" y="-244" href="#P12"></use><use x="3958" y="-49" href="#P9"></use><use x="3959" y="219" href="#P10"></use><use x="3857" y="282" href="#P1"></use><use x="3883" y="556" href="#P4"></use><use x="3915" y="668" href="#P8"></use><use x="3977" y="943" href="#P3"></use><use x="3944" y="981" href="#P7"></use><use x="3853" y="1286" href="#P4"></use><use x="3952" y="1411" href="#P13"></use><use x="3880" y="1514" href="#P0"></use><use x="3897" y="1788" href="#P10"></use><use x="3855" y="1928" href="#P4"></use><use x="3930" y="2032" href="#P2"></use><use x="3994" y="2368" href="#P8"></use><use x="3878" y="2488" href="#P5"></use><use x="3919" y="2657" href="#P11"></use><use x="3912" y="2720" href="#P3"></use><use x="3960" y="2968" href="#P6"></use><use x="3957" y="3158" href="#P0"></use><use x="3860" y="3378" href="#P10"></use><use x="3964" y="3466" href="#P1"></use><use x="3895" y="3663" href="#P7"></use><use x="4007" y="3912" href="#P1"></use><use x="3889" y="3960" href="#P12"></use><use x="3864" y="4163" href="#P1"></use><use x="3998" y="4308" href="#P2"></use><use x="3912" y="4571" href="#P12"></use><use x="3862" y="4796" href="#P5"></use><use x="3873" y="4841" href="#P4"></use><use x="3839" y="5040" href="#P3"></use><use x="3986" y="5253" href="#P4"></use><use x="4074" y="-163" href="#P3"></use><use x="4180" y="-18" href="#P5"></use><use x="4080" y="248" href="#P11"></use><use x="4022" y="293" href="#P1"></use><use x="4099" y="467" href="#P13"></use><use x="4038" y="765" href="#P1"></use><use x="4053" y="805" href="#P13"></use><use x="4160" y="1105" href="#P4"></use><use x="4060" y="1312" href="#P5"></use><use x="4143" y="1338" href="#P4"></use><use x="4141" y="1600" href="#P8"></use><use x="4177" y="1799" href="#P9"></use><use x="4152" y="1862" href="#P3"></use><use x="4175" y="2095" href="#P0"></use><use x="4127" y="2198" href="#P0"></use><use x="4030" y="2495" href="#P10"></use><use x="4150" y="2705" href="#P8"></use><use x="4092" y="2862" href="#P7"></use><use x="4147" y="3014" href="#P11"></use><use x="4069" y="3227" href="#P1"></use><use x="4060" y="3266" href="#P13"></use><use x="4175" y="3572" href="#P3"></use><use x="4178" y="3744" href="#P3"></use><use x="4098" y="3936" href="#P5"></use><use x="4133" y="4084" href="#P11"></use><use x="4066" y="4259" href="#P13"></use><use x="4125" y="4398" href="#P9"></use><use x="4172" y="4634" href="#P9"></use><use x="4123" y="4657" href="#P8"></use><use x="4156" y="4914" href="#P13"></use><use x="4090" y="4999" href="#P12"></use><use x="4067" y="5324" href="#P5"></use><use x="4190" y="-165" href="#P2"></use><use x="4266" y="56" href="#P8"></use><use x="4205" y="174" href="#P12"></use><use x="4294" y="306" href="#P8"></use><use x="4310" y="500" href="#P6"></use><use x="4298" y="756" href="#P0"></use><use x="4224" y="948" href="#P7"></use><use x="4349" y="1084" href="#P13"></use><use x="4306" y="1159" href="#P3"></use><use x="4241" y="1476" href="#P13"></use><use x="4302" y="1631" href="#P6"></use><use x="4190" y="1678" href="#P0"></use><use x="4269" y="1876" href="#P9"></use><use x="4239" y="2184" href="#P0"></use><use x="4258" y="2276" href="#P1"></use><use x="4246" y="2382" href="#P6"></use><use x="4348" y="2707" href="#P7"></use><use x="4267" y="2753" href="#P2"></use><use x="4286" y="2905" href="#P6"></use><use x="4278" y="3128" href="#P4"></use><use x="4193" y="3415" href="#P1"></use><use x="4249" y="3502" href="#P3"></use><use x="4320" y="3600" href="#P11"></use><use x="4203" y="3834" href="#P13"></use><use x="4292" y="4021" href="#P3"></use><use x="4236" y="4239" href="#P8"></use><use x="4340" y="4350" href="#P0"></use><use x="4303" y="4486" href="#P12"></use><use x="4287" y="4731" href="#P8"></use><use x="4202" y="4927" href="#P3"></use><use x="4323" y="5086" href="#P0"></use><use x="4219" y="5246" href="#P12"></use><use x="4512" y="-136" href="#P7"></use><use x="4392" y="68" href="#P10"></use><use x="4390" y="152" href="#P2"></use><use x="4387" y="300" href="#P10"></use><use x="4434" y="506" href="#P8"></use><use x="4527" y="715" href="#P1"></use><use x="4451" y="920" href="#P0"></use><use x="4392" y="995" href="#P3"></use><use x="4366" y="1159" href="#P7"></use><use x="4496" y="1439" href="#P11"></use><use x="4365" y="1646" href="#P13"></use><use x="4463" y="1671" href="#P9"></use><use x="4486" y="1901" href="#P0"></use><use x="4366" y="2030" href="#P1"></use><use x="4374" y="2248" href="#P6"></use><use x="4399" y="2468" href="#P1"></use><use x="4490" y="2647" href="#P5"></use><use x="4434" y="2858" href="#P1"></use><use x="4466" y="3037" href="#P2"></use><use x="4451" y="3167" href="#P6"></use><use x="4422" y="3270" href="#P4"></use><use x="4432" y="3443" href="#P7"></use><use x="4423" y="3651" href="#P1"></use><use x="4534" y="3940" href="#P8"></use><use x="4395" y="3970" href="#P3"></use><use x="4385" y="4131" href="#P6"></use><use x="4481" y="4438" href="#P2"></use><use x="4456" y="4475" href="#P3"></use><use x="4453" y="4773" href="#P4"></use><use x="4537" y="4940" href="#P7"></use><use x="4515" y="5054" href="#P12"></use><use x="4495" y="5197" href="#P6"></use><use x="4647" y="-121" href="#P10"></use><use x="4689" y="-21" href="#P0"></use><use x="4715" y="241" href="#P0"></use><use x="4560" y="383" href="#P0"></use><use x="4560" y="532" href="#P11"></use><use x="4583" y="731" href="#P8"></use><use x="4704" y="958" href="#P9"></use><use x="4569" y="1131" href="#P11"></use><use x="4558" y="1155" href="#P3"></use><use x="4595" y="1462" href="#P12"></use><use x="4554" y="1584" href="#P7"></use><use x="4712" y="1825" href="#P2"></use><use x="4652" y="2014" href="#P4"></use><use x="4555" y="2057" href="#P1"></use><use x="4583" y="2277" href="#P13"></use><use x="4621" y="2520" href="#P3"></use><use x="4649" y="2693" href="#P9"></use><use x="4548" y="2761" href="#P10"></use><use x="4621" y="2899" href="#P2"></use><use x="4679" y="3138" href="#P13"></use><use x="4549" y="3335" href="#P4"></use><use x="4646" y="3517" href="#P2"></use><use x="4703" y="3759" href="#P3"></use><use x="4620" y="3796" href="#P9"></use><use x="4686" y="4035" href="#P5"></use><use x="4591" y="4236" href="#P9"></use><use x="4648" y="4315" href="#P13"></use><use x="4700" y="4482" href="#P5"></use><use x="4609" y="4752" href="#P1"></use><use x="4678" y="4905" href="#P7"></use><use x="4644" y="5089" href="#P8"></use><use x="4588" y="5204" href="#P0"></use><use x="4823" y="-110" href="#P6"></use><use x="4795" y="42" href="#P0"></use><use x="4851" y="132" href="#P0"></use><use x="4768" y="340" href="#P0"></use><use x="4800" y="582" href="#P13"></use><use x="4719" y="694" href="#P9"></use><use x="4843" y="889" href="#P4"></use><use x="4838" y="1026" href="#P9"></use><use x="4776" y="1290" href="#P4"></use><use x="4783" y="1384" href="#P3"></use><use x="4724" y="1575" href="#P5"></use><use x="4725" y="1837" href="#P13"></use><use x="4780" y="1962" href="#P13"></use><use x="4744" y="2042" href="#P7"></use><use x="4804" y="2221" href="#P9"></use><use x="4843" y="2478" href="#P10"></use><use x="4839" y="2584" href="#P11"></use><use x="4738" y="2824" href="#P7"></use><use x="4833" y="3000" href="#P10"></use><use x="4895" y="3111" href="#P8"></use><use x="4736" y="3358" href="#P8"></use><use x="4796" y="3482" href="#P12"></use><use x="4754" y="3714" href="#P4"></use><use x="4889" y="3835" href="#P13"></use><use x="4889" y="4033" href="#P4"></use><use x="4808" y="4152" href="#P8"></use><use x="4830" y="4418" href="#P4"></use><use x="4809" y="4523" href="#P11"></use><use x="4737" y="4727" href="#P6"></use><use x="4786" y="4973" href="#P7"></use><use x="4753" y="5063" href="#P9"></use><use x="4882" y="5279" href="#P0"></use><use x="5053" y="-119" href="#P3"></use><use x="4937" y="76" href="#P7"></use><use x="4957" y="147" href="#P2"></use><use x="5059" y="382" href="#P3"></use><use x="4913" y="488" href="#P10"></use><use x="4934" y="650" href="#P9"></use><use x="4935" y="877" href="#P1"></use><use x="5036" y="1075" href="#P3"></use><use x="4969" y="1274" href="#P2"></use><use x="4953" y="1332" href="#P10"></use><use x="5003" y="1566" href="#P11"></use><use x="4895" y="1699" href="#P12"></use><use x="4966" y="1847" href="#P13"></use><use x="5065" y="2117" href="#P8"></use><use x="4979" y="2209" href="#P3"></use><use x="4903" y="2495" href="#P5"></use><use x="5055" y="2692" href="#P4"></use><use x="5041" y="2807" href="#P13"></use><use x="5041" y="3027" href="#P0"></use><use x="4937" y="3098" href="#P4"></use><use x="5033" y="3354" href="#P6"></use><use x="4922" y="3563" href="#P3"></use><use x="5065" y="3615" href="#P13"></use><use x="5002" y="3828" href="#P5"></use><use x="4911" y="4038" href="#P9"></use><use x="4931" y="4152" href="#P2"></use><use x="5048" y="4453" href="#P11"></use><use x="5043" y="4474" href="#P3"></use><use x="4988" y="4791" href="#P13"></use><use x="5001" y="4897" href="#P0"></use><use x="5062" y="5137" href="#P3"></use><use x="4968" y="5213" href="#P4"></use><use x="5127" y="-155" href="#P11"></use><use x="5137" y="88" href="#P10"></use><use x="5187" y="202" href="#P12"></use><use x="5090" y="358" href="#P6"></use><use x="5156" y="543" href="#P7"></use><use x="5177" y="637" href="#P12"></use><use x="5196" y="852" href="#P5"></use><use x="5142" y="1145" href="#P4"></use><use x="5166" y="1210" href="#P11"></use><use x="5250" y="1427" href="#P10"></use><use x="5192" y="1613" href="#P6"></use><use x="5095" y="1827" href="#P9"></use><use x="5074" y="1881" href="#P10"></use><use x="5232" y="2098" href="#P12"></use><use x="5168" y="2199" href="#P10"></use><use x="5163" y="2478" href="#P12"></use><use x="5217" y="2607" href="#P0"></use><use x="5168" y="2720" href="#P9"></use><use x="5134" y="3016" href="#P3"></use><use x="5170" y="3113" href="#P9"></use><use x="5228" y="3303" href="#P11"></use><use x="5190" y="3442" href="#P2"></use><use x="5198" y="3607" href="#P6"></use><use x="5180" y="3799" href="#P10"></use><use x="5171" y="3988" href="#P0"></use><use x="5099" y="4254" href="#P1"></use><use x="5153" y="4409" href="#P4"></use><use x="5188" y="4489" href="#P12"></use><use x="5156" y="4697" href="#P5"></use><use x="5250" y="4885" href="#P8"></use><use x="5184" y="5054" href="#P11"></use><use x="5079" y="5256" href="#P8"></use></g></svg>